<svg width="36" height="31" viewBox="0 0 36 31" fill="none" xmlns="http://www.w3.org/2000/svg">
<path d="M34.5 26C34.5 26.7956 34.1839 27.5587 33.6213 28.1213C33.0587 28.6839 32.2956 29 31.5 29H4.5C3.70435 29 2.94129 28.6839 2.37868 28.1213C1.81607 27.5587 1.5 26.7956 1.5 26V9.5C1.5 8.70435 1.81607 7.94129 2.37868 7.37868C2.94129 6.81607 3.70435 6.5 4.5 6.5H10.5L13.5 2H22.5L25.5 6.5H31.5C32.2956 6.5 33.0587 6.81607 33.6213 7.37868C34.1839 7.94129 34.5 8.70435 34.5 9.5V26Z" stroke="#F3F3F3" stroke-width="4" stroke-linecap="round" stroke-linejoin="round"/>
<path d="M18 23C21.3137 23 24 20.3137 24 17C24 13.6863 21.3137 11 18 11C14.6863 11 12 13.6863 12 17C12 20.3137 14.6863 23 18 23Z" stroke="#F3F3F3" stroke-width="4" stroke-linecap="round" stroke-linejoin="round"/>
</svg>
