<svg width="32" height="33" viewBox="0 0 32 33" fill="none" xmlns="http://www.w3.org/2000/svg">
<g id="Google Icon">
<g id="Vector">
<path fill-rule="evenodd" clip-rule="evenodd" d="M32 16.8637C32 15.7292 31.8961 14.6383 31.7032 13.591H16.3265V19.7801H25.1132C24.7347 21.7801 23.5844 23.4746 21.8553 24.6092V28.6237H27.1317C30.2189 25.8383 32 21.7365 32 16.8637Z" fill="#4285F4"/>
<path fill-rule="evenodd" clip-rule="evenodd" d="M16.3266 32.5C20.7347 32.5 24.4304 31.0674 27.1317 28.6237L21.8553 24.6092C20.3933 25.5692 18.5232 26.1363 16.3266 26.1363C12.0742 26.1363 8.47497 23.3218 7.19111 19.54H1.73656V23.6854C4.42302 28.9145 9.94436 32.5 16.3266 32.5Z" fill="#34A853"/>
<path fill-rule="evenodd" clip-rule="evenodd" d="M7.19111 19.54C6.86458 18.58 6.67904 17.5546 6.67904 16.5001C6.67904 15.4455 6.86457 14.4201 7.1911 13.4601V9.31465H1.73655C0.630798 11.4746 0 13.9183 0 16.5001C0 19.0819 0.630805 21.5254 1.73656 23.6854L7.19111 19.54Z" fill="#FBBC05"/>
<path fill-rule="evenodd" clip-rule="evenodd" d="M16.3266 6.86366C18.7236 6.86366 20.8757 7.67093 22.5677 9.25638L27.2505 4.6673C24.423 2.08548 20.7273 0.500031 16.3266 0.500031C9.94436 0.500031 4.42301 4.08556 1.73655 9.31465L7.1911 13.4601C8.47496 9.67828 12.0742 6.86366 16.3266 6.86366Z" fill="#EA4335"/>
</g>
</g>
</svg>
